<mxfile host="app.diagrams.net" agent="Mozilla/5.0 (Windows NT 10.0; Win64; x64) AppleWebKit/537.36 (KHTML, like Gecko) Chrome/131.0.0.0 Safari/537.36" version="26.0.3" pages="4">
  <diagram name="IAutehnticationService" id="Tzmo9ZOexaIhjSpL_RK-">
    <mxGraphModel dx="1221" dy="759" grid="1" gridSize="10" guides="1" tooltips="1" connect="1" arrows="1" fold="1" page="1" pageScale="1" pageWidth="827" pageHeight="1169" math="0" shadow="0">
      <root>
        <mxCell id="0" />
        <mxCell id="1" parent="0" />
        <mxCell id="mbufdSFzFslEfhBCHYeK-3" value="" style="rounded=0;whiteSpace=wrap;html=1;fillColor=none;" vertex="1" parent="1">
          <mxGeometry x="280" y="40" width="280" height="240" as="geometry" />
        </mxCell>
        <mxCell id="mbufdSFzFslEfhBCHYeK-6" style="edgeStyle=orthogonalEdgeStyle;rounded=0;orthogonalLoop=1;jettySize=auto;html=1;exitX=0.5;exitY=1;exitDx=0;exitDy=0;entryX=0.5;entryY=0;entryDx=0;entryDy=0;" edge="1" parent="1" source="mbufdSFzFslEfhBCHYeK-1" target="mbufdSFzFslEfhBCHYeK-2">
          <mxGeometry relative="1" as="geometry" />
        </mxCell>
        <mxCell id="mbufdSFzFslEfhBCHYeK-1" value="Authentication" style="rounded=0;whiteSpace=wrap;html=1;" vertex="1" parent="1">
          <mxGeometry x="340" y="80" width="160" height="60" as="geometry" />
        </mxCell>
        <mxCell id="mbufdSFzFslEfhBCHYeK-2" value="IAuthenticationService" style="rounded=0;whiteSpace=wrap;html=1;" vertex="1" parent="1">
          <mxGeometry x="340" y="180" width="160" height="60" as="geometry" />
        </mxCell>
        <mxCell id="mbufdSFzFslEfhBCHYeK-7" style="edgeStyle=orthogonalEdgeStyle;rounded=0;orthogonalLoop=1;jettySize=auto;html=1;exitX=0.5;exitY=0;exitDx=0;exitDy=0;entryX=0.5;entryY=1;entryDx=0;entryDy=0;" edge="1" parent="1" source="mbufdSFzFslEfhBCHYeK-4" target="mbufdSFzFslEfhBCHYeK-2">
          <mxGeometry relative="1" as="geometry">
            <Array as="points">
              <mxPoint x="340" y="300" />
              <mxPoint x="420" y="300" />
            </Array>
          </mxGeometry>
        </mxCell>
        <mxCell id="mbufdSFzFslEfhBCHYeK-4" value="Cookie" style="rounded=0;whiteSpace=wrap;html=1;" vertex="1" parent="1">
          <mxGeometry x="280" y="320" width="120" height="60" as="geometry" />
        </mxCell>
        <mxCell id="mbufdSFzFslEfhBCHYeK-8" style="edgeStyle=orthogonalEdgeStyle;rounded=0;orthogonalLoop=1;jettySize=auto;html=1;exitX=0.5;exitY=0;exitDx=0;exitDy=0;" edge="1" parent="1" source="mbufdSFzFslEfhBCHYeK-5">
          <mxGeometry relative="1" as="geometry">
            <mxPoint x="420" y="240" as="targetPoint" />
            <Array as="points">
              <mxPoint x="500" y="300" />
              <mxPoint x="421" y="300" />
            </Array>
          </mxGeometry>
        </mxCell>
        <mxCell id="mbufdSFzFslEfhBCHYeK-5" value="Token" style="rounded=0;whiteSpace=wrap;html=1;" vertex="1" parent="1">
          <mxGeometry x="440" y="320" width="120" height="60" as="geometry" />
        </mxCell>
      </root>
    </mxGraphModel>
  </diagram>
  <diagram id="0hOO7gu96tUpyILiIfox" name="browser-session">
    <mxGraphModel dx="1023" dy="780" grid="1" gridSize="10" guides="1" tooltips="1" connect="1" arrows="1" fold="1" page="1" pageScale="1" pageWidth="827" pageHeight="1169" math="0" shadow="0">
      <root>
        <mxCell id="0" />
        <mxCell id="1" parent="0" />
        <mxCell id="VzG9IFp1WNHwRg_TG9LX-1" value="&lt;b&gt;Persistent&lt;/b&gt; Cookie Lifetime" style="rounded=0;whiteSpace=wrap;html=1;" vertex="1" parent="1">
          <mxGeometry x="120" y="200" width="310" height="30" as="geometry" />
        </mxCell>
        <mxCell id="VzG9IFp1WNHwRg_TG9LX-2" value="Browser Session Lifetime" style="rounded=0;whiteSpace=wrap;html=1;" vertex="1" parent="1">
          <mxGeometry x="120" y="240" width="160" height="30" as="geometry" />
        </mxCell>
        <mxCell id="VzG9IFp1WNHwRg_TG9LX-4" value="Browser Session Lifetime" style="rounded=0;whiteSpace=wrap;html=1;" vertex="1" parent="1">
          <mxGeometry x="290" y="240" width="270" height="30" as="geometry" />
        </mxCell>
        <mxCell id="VzG9IFp1WNHwRg_TG9LX-3" value="" style="endArrow=none;dashed=1;html=1;strokeWidth=2;rounded=0;strokeColor=#FF0000;" edge="1" parent="1">
          <mxGeometry width="50" height="50" relative="1" as="geometry">
            <mxPoint x="430" y="290" as="sourcePoint" />
            <mxPoint x="430" y="170" as="targetPoint" />
          </mxGeometry>
        </mxCell>
      </root>
    </mxGraphModel>
  </diagram>
  <diagram id="_CHJmewKeUCWaUQx1H4m" name="json-web-token">
    <mxGraphModel dx="1023" dy="780" grid="1" gridSize="10" guides="1" tooltips="1" connect="1" arrows="1" fold="1" page="1" pageScale="1" pageWidth="827" pageHeight="1169" math="0" shadow="0">
      <root>
        <mxCell id="0" />
        <mxCell id="1" parent="0" />
        <mxCell id="6XnUtwKbgvZP4usnjnBp-7" style="edgeStyle=orthogonalEdgeStyle;rounded=0;orthogonalLoop=1;jettySize=auto;html=1;exitX=0.5;exitY=1;exitDx=0;exitDy=0;entryX=0.5;entryY=1;entryDx=0;entryDy=0;" edge="1" parent="1" source="6XnUtwKbgvZP4usnjnBp-1" target="6XnUtwKbgvZP4usnjnBp-3">
          <mxGeometry relative="1" as="geometry">
            <Array as="points">
              <mxPoint x="160" y="480" />
              <mxPoint x="715" y="480" />
            </Array>
          </mxGeometry>
        </mxCell>
        <mxCell id="6XnUtwKbgvZP4usnjnBp-1" value="Hashing Algorithm" style="rounded=0;whiteSpace=wrap;html=1;" vertex="1" parent="1">
          <mxGeometry x="80" y="360" width="160" height="30" as="geometry" />
        </mxCell>
        <mxCell id="6XnUtwKbgvZP4usnjnBp-2" value="Claims" style="rounded=0;whiteSpace=wrap;html=1;" vertex="1" parent="1">
          <mxGeometry x="280" y="360" width="280" height="30" as="geometry" />
        </mxCell>
        <mxCell id="6XnUtwKbgvZP4usnjnBp-3" value="Hashed Claims" style="rounded=0;whiteSpace=wrap;html=1;" vertex="1" parent="1">
          <mxGeometry x="600" y="360" width="230" height="30" as="geometry" />
        </mxCell>
        <mxCell id="6XnUtwKbgvZP4usnjnBp-4" value="" style="ellipse;whiteSpace=wrap;html=1;aspect=fixed;" vertex="1" parent="1">
          <mxGeometry x="255" y="370" width="10" height="10" as="geometry" />
        </mxCell>
        <mxCell id="6XnUtwKbgvZP4usnjnBp-5" value="" style="ellipse;whiteSpace=wrap;html=1;aspect=fixed;" vertex="1" parent="1">
          <mxGeometry x="576" y="370" width="10" height="10" as="geometry" />
        </mxCell>
        <mxCell id="6XnUtwKbgvZP4usnjnBp-6" style="edgeStyle=orthogonalEdgeStyle;rounded=0;orthogonalLoop=1;jettySize=auto;html=1;exitX=0.5;exitY=0;exitDx=0;exitDy=0;entryX=0.438;entryY=0;entryDx=0;entryDy=0;entryPerimeter=0;" edge="1" parent="1" source="6XnUtwKbgvZP4usnjnBp-2" target="6XnUtwKbgvZP4usnjnBp-1">
          <mxGeometry relative="1" as="geometry">
            <Array as="points">
              <mxPoint x="420" y="320" />
              <mxPoint x="150" y="320" />
            </Array>
          </mxGeometry>
        </mxCell>
        <mxCell id="6XnUtwKbgvZP4usnjnBp-10" value="" style="image;sketch=0;aspect=fixed;html=1;points=[];align=center;fontSize=12;image=img/lib/mscae/Key.svg;" vertex="1" parent="1">
          <mxGeometry x="148" y="410" width="24.8" height="40" as="geometry" />
        </mxCell>
      </root>
    </mxGraphModel>
  </diagram>
  <diagram id="wURyJ3dsmIaPRHva6DYR" name="jwt-flow">
    <mxGraphModel dx="1023" dy="780" grid="1" gridSize="10" guides="1" tooltips="1" connect="1" arrows="1" fold="1" page="1" pageScale="1" pageWidth="827" pageHeight="1169" math="0" shadow="0">
      <root>
        <mxCell id="0" />
        <mxCell id="1" parent="0" />
        <mxCell id="woCWBH138yPND4NGCT57-3" style="edgeStyle=orthogonalEdgeStyle;rounded=0;orthogonalLoop=1;jettySize=auto;html=1;exitX=1;exitY=0.25;exitDx=0;exitDy=0;entryX=0;entryY=0.25;entryDx=0;entryDy=0;" edge="1" parent="1" source="woCWBH138yPND4NGCT57-1" target="woCWBH138yPND4NGCT57-2">
          <mxGeometry relative="1" as="geometry" />
        </mxCell>
        <mxCell id="woCWBH138yPND4NGCT57-8" style="edgeStyle=orthogonalEdgeStyle;rounded=0;orthogonalLoop=1;jettySize=auto;html=1;exitX=0.75;exitY=1;exitDx=0;exitDy=0;entryX=0.25;entryY=0;entryDx=0;entryDy=0;" edge="1" parent="1" source="woCWBH138yPND4NGCT57-1" target="woCWBH138yPND4NGCT57-5">
          <mxGeometry relative="1" as="geometry" />
        </mxCell>
        <mxCell id="woCWBH138yPND4NGCT57-10" style="edgeStyle=orthogonalEdgeStyle;rounded=0;orthogonalLoop=1;jettySize=auto;html=1;exitX=0.25;exitY=1;exitDx=0;exitDy=0;entryX=0;entryY=0.5;entryDx=0;entryDy=0;" edge="1" parent="1" source="woCWBH138yPND4NGCT57-1" target="woCWBH138yPND4NGCT57-6">
          <mxGeometry relative="1" as="geometry" />
        </mxCell>
        <mxCell id="woCWBH138yPND4NGCT57-1" value="Web App" style="rounded=0;whiteSpace=wrap;html=1;" vertex="1" parent="1">
          <mxGeometry x="200" y="280" width="120" height="60" as="geometry" />
        </mxCell>
        <mxCell id="woCWBH138yPND4NGCT57-4" style="edgeStyle=orthogonalEdgeStyle;rounded=0;orthogonalLoop=1;jettySize=auto;html=1;exitX=0;exitY=0.75;exitDx=0;exitDy=0;entryX=1;entryY=0.75;entryDx=0;entryDy=0;" edge="1" parent="1" source="woCWBH138yPND4NGCT57-2" target="woCWBH138yPND4NGCT57-1">
          <mxGeometry relative="1" as="geometry" />
        </mxCell>
        <mxCell id="woCWBH138yPND4NGCT57-2" value="Auth Provider" style="rounded=0;whiteSpace=wrap;html=1;" vertex="1" parent="1">
          <mxGeometry x="520" y="280" width="120" height="60" as="geometry" />
        </mxCell>
        <mxCell id="woCWBH138yPND4NGCT57-9" style="edgeStyle=orthogonalEdgeStyle;rounded=0;orthogonalLoop=1;jettySize=auto;html=1;exitX=1;exitY=0.5;exitDx=0;exitDy=0;entryX=0.5;entryY=1;entryDx=0;entryDy=0;" edge="1" parent="1" source="woCWBH138yPND4NGCT57-5" target="woCWBH138yPND4NGCT57-2">
          <mxGeometry relative="1" as="geometry" />
        </mxCell>
        <mxCell id="woCWBH138yPND4NGCT57-5" value="Web API" style="rounded=0;whiteSpace=wrap;html=1;fillColor=#d5e8d4;strokeColor=#82b366;" vertex="1" parent="1">
          <mxGeometry x="260" y="450" width="120" height="60" as="geometry" />
        </mxCell>
        <mxCell id="woCWBH138yPND4NGCT57-6" value="Web API" style="rounded=0;whiteSpace=wrap;html=1;fillColor=#e1d5e7;strokeColor=#9673a6;" vertex="1" parent="1">
          <mxGeometry x="260" y="555" width="120" height="60" as="geometry" />
        </mxCell>
        <mxCell id="woCWBH138yPND4NGCT57-11" style="edgeStyle=orthogonalEdgeStyle;rounded=0;orthogonalLoop=1;jettySize=auto;html=1;exitX=1;exitY=0.5;exitDx=0;exitDy=0;entryX=0.817;entryY=1.017;entryDx=0;entryDy=0;entryPerimeter=0;" edge="1" parent="1" source="woCWBH138yPND4NGCT57-6" target="woCWBH138yPND4NGCT57-2">
          <mxGeometry relative="1" as="geometry" />
        </mxCell>
        <mxCell id="woCWBH138yPND4NGCT57-15" style="edgeStyle=orthogonalEdgeStyle;rounded=0;orthogonalLoop=1;jettySize=auto;html=1;exitX=1;exitY=0.3333333333333333;exitDx=0;exitDy=0;exitPerimeter=0;entryX=0;entryY=0.5;entryDx=0;entryDy=0;" edge="1" parent="1" source="woCWBH138yPND4NGCT57-12" target="woCWBH138yPND4NGCT57-1">
          <mxGeometry relative="1" as="geometry" />
        </mxCell>
        <mxCell id="woCWBH138yPND4NGCT57-12" value="Actor" style="shape=umlActor;verticalLabelPosition=bottom;verticalAlign=top;html=1;outlineConnect=0;" vertex="1" parent="1">
          <mxGeometry x="70" y="280" width="30" height="60" as="geometry" />
        </mxCell>
        <mxCell id="woCWBH138yPND4NGCT57-16" value="" style="shape=image;html=1;verticalAlign=top;verticalLabelPosition=bottom;labelBackgroundColor=#ffffff;imageAspect=0;aspect=fixed;image=https://cdn0.iconfinder.com/data/icons/phosphor-thin-vol-3/256/number-circle-one-thin-128.png" vertex="1" parent="1">
          <mxGeometry x="350" y="260" width="30" height="30" as="geometry" />
        </mxCell>
        <mxCell id="woCWBH138yPND4NGCT57-17" value="" style="shape=image;html=1;verticalAlign=top;verticalLabelPosition=bottom;labelBackgroundColor=#ffffff;imageAspect=0;aspect=fixed;image=https://cdn0.iconfinder.com/data/icons/phosphor-thin-vol-3/256/number-circle-two-thin-128.png" vertex="1" parent="1">
          <mxGeometry x="460" y="330" width="30" height="30" as="geometry" />
        </mxCell>
        <mxCell id="woCWBH138yPND4NGCT57-18" value="" style="outlineConnect=0;dashed=0;verticalLabelPosition=bottom;verticalAlign=top;align=center;html=1;shape=mxgraph.aws3.saml_token;fillColor=#D2D3D3;gradientColor=none;" vertex="1" parent="1">
          <mxGeometry x="360" y="314" width="28.75" height="30" as="geometry" />
        </mxCell>
        <mxCell id="woCWBH138yPND4NGCT57-20" value="" style="outlineConnect=0;dashed=0;verticalLabelPosition=bottom;verticalAlign=top;align=center;html=1;shape=mxgraph.aws3.saml_token;fillColor=#D2D3D3;gradientColor=none;" vertex="1" parent="1">
          <mxGeometry x="277.25" y="380" width="28.75" height="30" as="geometry" />
        </mxCell>
        <mxCell id="woCWBH138yPND4NGCT57-21" value="" style="shape=image;html=1;verticalAlign=top;verticalLabelPosition=bottom;labelBackgroundColor=#ffffff;imageAspect=0;aspect=fixed;image=https://cdn0.iconfinder.com/data/icons/phosphor-thin-vol-3/256/number-circle-three-thin-128.png" vertex="1" parent="1">
          <mxGeometry x="260" y="360" width="30" height="30" as="geometry" />
        </mxCell>
        <mxCell id="woCWBH138yPND4NGCT57-22" value="" style="shape=image;html=1;verticalAlign=top;verticalLabelPosition=bottom;labelBackgroundColor=#ffffff;imageAspect=0;aspect=fixed;image=https://cdn0.iconfinder.com/data/icons/phosphor-thin-vol-3/256/number-circle-four-thin-128.png" vertex="1" parent="1">
          <mxGeometry x="470" y="450" width="30" height="30" as="geometry" />
        </mxCell>
      </root>
    </mxGraphModel>
  </diagram>
</mxfile>
